<svg version="1.1" id="Layer_1" xmlns="http://www.w3.org/2000/svg" xmlns:xlink="http://www.w3.org/1999/xlink" x="0px" y="0px" width="24.25px" height="25.46px" viewBox="0 0 24.25 25.46" enable-background="new 0 0 24.25 25.46" xml:space="preserve">
								<g>
									<defs>
										<rect id="SVGID_1_" x="2.001" width="21.12" height="25.46"></rect>
									</defs>
									<clipPath id="SVGID_2_">
										<use xlink:href="#SVGID_1_" overflow="visible"></use>
									</clipPath>
									<path clip-path="url(#SVGID_2_)" fill="#ff004c" d="M22.652,13.898c-2.182,0-3.665-0.122-4.452-0.366
										c-0.789-0.246-1.183-0.631-1.183-1.16c0-0.612,0.365-1.815,1.107-3.6c0.738-1.789-2.068-3.407-2.068-4.775h-0.226
										c-0.802,1.033-1.948,2.278-3.438,3.738c-1.49,1.457-2.672,2.688-3.535,3.685c-0.864,0.998-1.295,1.821-1.295,2.479
										c-2.184,0-3.652-0.135-4.417-0.409c-0.759-0.269-1.146-0.699-1.146-1.286c0-0.683,0.694-1.719,2.086-3.105
										c1.391-1.39,3.008-2.96,4.847-4.714c1.844-1.752,3.114-3.213,3.817-4.384c1.253,0,2.335,0.15,3.251,0.446
										c0.91,0.302,1.633,0.688,2.159,1.156c0.526,0.464,3.416,3.638,3.843,4.389C23.637,8.87,23.133,12.153,22.652,13.898"></path>
									<path clip-path="url(#SVGID_2_)" fill="#ff004c" d="M5.739,23.183c0-0.902,0.384-2.266,1.143-4.084
										c0.762-1.818,1.599-3.607,2.51-5.371c0.917-1.762,1.755-3.619,2.516-5.565c0.756-1.956,1.138-3.5,1.138-4.646
										c1.766,0,3.036,0.167,3.82,0.496c0.779,0.33,1.173,0.926,1.173,1.783c0,0.903-0.384,2.266-1.14,4.085
										c-0.762,1.812-1.602,3.607-2.514,5.369c-0.916,1.763-1.752,3.619-2.509,5.568c-0.766,1.951-1.142,3.5-1.142,4.643
										c-1.767,0-3.036-0.165-3.819-0.496C6.131,24.637,5.739,24.04,5.739,23.183"></path>
								</g>
								</svg>