<svg version="1.1" id="Layer_1" xmlns="http://www.w3.org/2000/svg" xmlns:xlink="http://www.w3.org/1999/xlink" x="0px" y="0px" viewBox="0 0 25.5 24.2" style="enable-background:new 0 0 25.5 24.2;" xml:space="preserve">
						<g>
							<path d="M20.4,2.1c1.3,0,2.4,1.1,2.4,2.4v14c0,1.4-1.1,2.4-2.4,2.4h-14c-1.4,0-2.4-1.1-2.4-2.4v-14c0-1.3,1.1-2.4,2.4-2.4H20.4z
								 M20.7,10.1H19c0.2,0.5,0.3,1,0.3,1.6c0,3.2-2.6,5.7-5.9,5.7c-3.2,0-5.9-2.5-5.9-5.7c0-0.6,0.1-1.1,0.3-1.6H6v8
								c0,0.4,0.4,0.8,0.8,0.8H20c0.4,0,0.8-0.3,0.8-0.8V10.1z M9.6,11.5c0,2,1.7,3.6,3.8,3.6c2.1,0,3.8-1.7,3.8-3.6
								c0-2.1-1.7-3.7-3.8-3.7C11.3,7.8,9.6,9.5,9.6,11.5z M17.7,4.2c-0.4,0-0.8,0.4-0.8,0.9v2.1c0,0.4,0.4,0.8,0.8,0.8h2.2
								c0.5,0,0.9-0.4,0.9-0.8V5c0-0.4-0.4-0.9-0.9-0.9H17.7z"></path>
						</g>
						</svg>