<svg xmlns="http://www.w3.org/2000/svg" viewBox="0 0 500 522"><path d="M244.8 264.3c9.4 12.4 11.9 29.6 5.1 43.7-6.5 13.6-20.2 22.6-34.8 25.2-2.1.4-2 6.1.1 6 17.6-1.6 32.8-14.2 38.5-30.8 5.5-16.1 2.4-34.2-8.3-47.4-.8-1.2-1.2 2.5-.6 3.3zM312.1 294.5c-21.3 13.4-40.5 41.2-33.3 67.3.9 3.1 2.7-.4 2.4-2.1-5-23.7 13-48.6 31.5-61.5.9-.7.5-4.4-.6-3.7zM319.7 284c-18.7-4.9-37.9 10.3-43.3 27.6-.5 1.6 1 5.4 2 2.4 6-18.4 23.1-26.9 41.3-28.4.6 0 .5-1.5 0-1.6zM252.9 263.6c9.6 8.9 15.6 20.5 17.3 33.5.4 3.3 2.4.8 2.2-1.4-1.6-13.7-8.4-26-19.1-34.8-.7-.5-1 2.2-.4 2.7zM284.1 264.1c1.3 3.1 2.3 7.5 4.5 10.1 2.3 2.6 6.2 2.1 9.3 2.1 4.9.1 12.9 1.6 11.8-5.6-1.7-10.8-18-15.3-25.9-8.8-.8.7-.8 4.8.6 4.1 6.4-3.1 16-3.8 20.9 2.7 1.7 2.2.9 2.4-1.6 2.5-2.5.1-5 .1-7.6.1-3 0-5.9.3-7.6-2.5-1.4-2.2-2.3-4.8-3.4-7.1-.8-1.4-1.3 1.6-1 2.4z"></path><path d="M268.6 279.9c4.5-5.2 10.2-8.6 16.8-10.4 1.3-.3 1.1-4.2-.1-4-7.2 1.4-13.3 5.5-17.6 11.4-.5.8-.1 4.2.9 3zM306.8 275.5c-.9 1.4-1.7 2.7-2.5 4.2-.3.6-.2 1.5 0 2.1.2.4.6.9.9.4.9-1.2 1.6-2.6 2.3-3.9.4-.6.4-1.5.2-2.2 0-.4-.5-1.2-.9-.6zM309 357.8c24.8 22.3 32.7 61 14.4 89.8-8.2 12.9-20.5 23-34.6 28.9-7.2 3-14.9 4.8-22.7 5.2-8.7.5-17.3-.8-25.9-1.2-9.1-.4-18.7.3-26.7 5.2-7.9 4.8-13.3 12.2-17.4 20.4-.8 1.6.7 6.1 2.2 3.5 4.6-7.9 10.5-15.5 18.8-19.6 9.3-4.5 19.9-3.8 29.9-3.1 17.7 1.3 33.9.4 49.7-8.2 28.2-15.4 43.4-46.8 38-78.4-3-17.7-11.7-33.9-25.6-45.3-.4-.7-.7 2.2-.1 2.8z"></path><path d="M296.4 330.1c12.5 3 21.8 11.5 28 22.5 6.4 11.4 10.7 24.4 9 37.6-.3 2.1 1.6 4.2 2.1 1.2 2.4-14.2-1.9-28.9-8.6-41.4-6.3-11.7-16.4-22.9-30.5-23.6-1.2-.1-1.1 3.4 0 3.7zM200.3 319.1c-25.1-2.4-55.5-3.1-71.7 20-15.2 21.6-16 54.2-3.9 77.2 6.7 12.7 17.6 23.3 31.1 28.2 2 .7 2.3-4.3.6-5-31.8-13.9-44.8-51.8-32.7-83.7 5.7-14.9 17-25.6 32.3-30.3 14.3-4.4 29.6-4.2 44.3-3.9.8-.1.8-2.5 0-2.5z"></path><path d="M152.8 431.4c-.1 11.3 6.5 20.8 12.7 29.6 4.1 5.7 8 11.4 10.1 18.2 2 6.7 2.3 13.8 2.4 20.8 0 3.2 2.6 3 2.7-.1.4-12-1.3-23.9-7.5-34.4-6.8-11.5-17-20.8-18.8-34.7-.3-1.9-1.6-.9-1.6.6zM188.8 481.7c.9 5.4.6 10.6-1 15.8-.4 1.4 1 4.3 1.7 1.9 1.8-6.1 2-12.3.7-18.5-.3-2.1-1.6-.7-1.4.8zM200.3 484c-1.9 1.4-2.8 3.5-2.8 5.9 0 .4.1 1.2.7 1.2.5 0 .6-.9.6-1.3 0-1.4.8-2.7 1.9-3.5.6-.5.3-2.8-.4-2.3zM184 315.4c9.1-1.8 17.9-4.1 27.1-4.9 9.3-.9 18.4-.4 27.6-.4 1 0 .9-3.2-.1-3.4-17.3-2.7-38.5-.3-54.9 6.2-.5.2-.4 2.6.3 2.5zM249.3 357.5c-15.7 17.6-27.6 40.6-27.7 64.5 0 3 2.4 2.9 2.4-.1.4-23.6 13-43.3 26-62 .4-.5.1-3.3-.7-2.4zM270.5 373.8c6.5 16.8 1.3 34.3-4.6 50.4-.5 1.4.8 6 1.7 3.5 6.5-18.1 11.4-37.8 3.9-56.3-.6-1.8-1.3 1.5-1 2.4zM301.4 398.8c7.8 18.6 5.4 39.7-5.7 56.4-.7 1 .1 5 1.1 3.6 12.3-18.1 14.2-41.9 5.4-61.9-.6-1.3-1.1 1.2-.8 1.9zM235.4 451.3c-4.9 6.8-10.8 12.5-17.3 17.9-1 .8-.5 4.6.6 3.8 6.9-5.2 12.7-12 17.5-19.2.4-.7-.1-3.5-.8-2.5zM185.3 400.9c-6.9 17.5-9 36.7-5.6 55.3.6 3.1 2.5.8 2.1-1.3-2.9-17.3-1.4-34.7 4.8-51.1.5-1.1-.5-5-1.3-2.9zM209.6 356.3c-7.1 6.6-12.8 14.5-16.2 23.6-.4 1.1.6 5.1 1.5 3 3.6-8.7 8.6-16.4 15.3-23 .8-.8.2-4.3-.6-3.6zM152.9 351.4c-9.1 8.7-14.4 20.2-15.1 32.7-.1 1.7 1.5 3.6 1.7 1 .9-11.7 5.6-22.4 13.9-30.7.6-.7.1-3.6-.5-3zM191.7 331.7c-8.4 4.2-14.7 11.1-18.2 19.7-.4.9.5 4.1 1.2 2.4 3.3-8.4 9.5-15.1 17.5-19.2.7-.4.4-3.4-.5-2.9zM436.8 74.5C384.6 123.8 351 189.8 341.6 261c-2.6 20-3.4 40.3-1.8 60.4.3 3.8 3.8 3.8 3.5-.1-4-70.3 15.3-140.1 55.4-198.1 11.3-16.4 24.1-31.9 38.5-45.7.7-.6.2-3.5-.4-3z"></path><path d="M431.8 83.8c-51 63.8-79.7 144.6-83.2 226.1-1 23.4 0 46.9 3.3 70.1.6 4.3 3.9 1.3 3.5-1.8-10.2-80.2 4.2-161.5 40.7-233.5 10.4-20.5 22.6-40.1 36.3-58.5.4-.6.1-3.2-.6-2.4z"></path><path d="M427.1 79c-50.4 59.2-79.8 135.5-83.2 213.1-1 22 0 43.9 3.4 65.6.7 4.3 3.9 1.3 3.5-1.8-10.3-75.9 4.6-152.9 41.1-220.2 10.4-19.1 22.5-37.4 35.9-54.5.4-.4 0-3-.7-2.2zM422.1 107.3c12.8-9.6 28.4-14.2 44.3-14.7 1.3 0 1.2-3.9-.1-3.9-16.5.1-31.7 6.3-44.6 16.5-.5.4-.2 2.5.4 2.1z"></path><path d="M453.3 91.9c10.1-4.3 12.2-17.8 10.8-27.6-1.5-11.4-7.9-21.7-17.8-27.5-1.3-.7-1.6 3.7-.4 4.5 15.7 10 24.1 35.3 7.1 48.5-.5.3-.5 2.4.3 2.1z"></path><path d="M463 78.4c2.9-6.4 8.2-11.1 14.6-13.8 1.1-.5.8-4.5-.6-4-7.2 2.7-12.4 8.5-15.1 15.6-.3.8.4 3.8 1.1 2.2zM464.7 61.1c2.3-7.1 6.7-11.5 12.1-16.3.7-.6.7-4-.5-3.4-6.5 3.4-10.8 11.4-12.6 18.2-.1.6.6 2.8 1 1.5z"></path><path d="M465.8 53.9c-.5-8.3-2.2-16.2-5.2-24-.7-1.9-1.7 1.5-1.3 2.4 2.6 7 4.3 14.1 4.9 21.6.1 2.1 1.7 2.2 1.6 0zM393 164c33.6 2.9 58.5-26 75.6-51.1.6-.9.1-5.1-1-3.7-10.3 12.6-19.7 26-32.6 36.1-12 9.4-26.6 15.9-42.1 15.7-1 .1-.9 2.9.1 3z"></path><path d="M458.7 128.4c7.1-2.4 14.8-.1 19.6 5.7.7.9 1.1-1.8.6-2.5-5.1-6-13.1-8.1-20.5-5.6-.7.3-.5 2.6.3 2.4zM418.5 163.7c9.9 6.6 22.3 9.3 34.1 7.3 6.3-1.1 12.3-4.4 18.7-4.9 7.1-.5 12.6 3.9 18 8 1.1.9 1.6-3.4.7-4.2-4.1-3.5-8.4-7.1-13.7-8.4-6.9-1.6-13.2 1.8-19.7 3.5-12.8 3.3-26.1.9-37.6-5.4-1.3-.6-1.5 3.4-.5 4.1z"></path><path d="M460.6 167.7c4.1 5.3 6.7 11.4 7.1 18.1.2 2.3 2 2.3 1.8 0-.6-7.8-3.3-15-8.2-21.1-.9-1.2-1.4 2.1-.7 3zM464.3 165.4c4.4-2.9 8.4-6.3 11.9-10.2.7-.8.1-4.1-.9-3-3.5 3.8-7.2 7.2-11.5 10.1-.9.6-.5 3.7.5 3.1zM424.4 152.6c1.7-12.7 3.3-24.5 12-34.5.7-.8.1-4.8-.9-3.9-10.2 9.2-11.9 24.8-12.5 37.7.1 1.2 1.2 2.7 1.4.7z"></path><path d="M428.2 136c4-3.9 8.3-7.4 12.7-10.8.9-.7.6-4.4-.6-3.7-5.1 3-9.4 7.3-12.9 12.1-.3.6-.1 3.3.8 2.4zM367.2 233.9c14.1 5.4 26.2-9.8 35.5-18.2 11-9.9 21.6-20.7 37.1-21.7 1.5-.1 1.4-4.6-.1-4.7-12.9-1.2-23.8 9-32.6 17-5.7 5.2-11.3 10.4-16.9 15.6-6.2 5.7-13.7 11.7-22.6 9.1-1.2-.5-1.3 2.5-.4 2.9z"></path><path d="M409.9 210.1c5.5-11.7.4-28.1-11.7-33.5-1.5-.7-1.8 3.9-.5 4.6 9.8 5.3 15.1 16.1 11.2 27-.2.6.3 3.3 1 1.9z"></path><path d="M411.7 199.7c-.1-6.1.2-12.2.9-18.2.2-1.7-1.4-3.4-1.7-.9-.8 6.4-.9 12.8-.6 19.2.1 1.7 1.4 1.7 1.4-.1zM410.3 211.9c5.9 1 10.4 4.7 15.4 7.7 4.7 2.8 9.8 4.3 14.9 6.2 11.6 4.3 18.8 13.6 17 26.4-.2 1.4 1.3 4.4 2.1 1.7 2.9-10.4-1.5-22.9-10.6-28.8-6.1-4-13.6-4.7-20.1-7.7-6.3-3-11.6-7.6-18.7-8.4-1-.2-1.1 2.7 0 2.9z"></path><path d="M436.7 222.8c8.8 1.9 17.7-1.1 23.2-8.2.6-.8.2-4.4-1-3.1-5.7 6.3-14 9.2-22.3 7.7-1.1-.2-1.2 3.4.1 3.6zM452.3 229.3c3.4.1 6.6-.6 9.6-2.3.8-.5.6-3.4-.5-2.9-2.9 1.5-5.9 2.3-9.2 2.4-.9-.1-.9 2.8.1 2.8zM358.1 302.4c10.9-26.4 30.7-51.9 62.3-49.3 1.6.1 1.5-4.9-.1-5.2-14.5-3-29.5 3.7-40 13.6-11.3 10.6-18.1 24.8-23.4 39.1-.4.8.6 3.3 1.2 1.8z"></path><path d="M402.3 256.5c5.7 2.9 10 7.4 12.9 13 .9 1.7 1.5-1.6 1.1-2.5-2.7-6.1-7.7-10.8-13.7-13.6-1-.5-1.2 2.7-.3 3.1zM393.6 257.5c2-7.4 6.5-12.3 12.1-17.2.6-.5.7-3.7-.5-3.1-6.9 3.4-11.3 11.4-13.1 18.6-.2 1.1.9 3.8 1.5 1.7zM377 265.4c1.3-5.1.9-10.4-1-15.3-1.1-2.7-2.1 1.2-1.5 2.6 1.4 3.5 1.7 7.2.9 10.9-.1.7-.3 2.1.4 2.6.5.4 1 0 1.2-.8zM360.6 297.5c10.8-9.4 23.4-20.5 38.9-18.9 16.2 1.6 23.5 16.8 30.6 29.4 1.3 2.2 2-2.1 1.5-3.2-5.8-13.2-14.8-28.5-30.5-30.8-16.7-2.4-30.5 10-41.2 21-.7.7-.4 3.4.7 2.5z"></path><path d="M402.8 286.1c2.6 9.2 3.1 18.3 1.7 27.7-.2 1.8 1.5 3.4 1.8.9 1.5-10.1.6-20.3-2.5-30.1-.4-1.5-1.3.6-1 1.5zM420.1 286c3.3 1.6 6.9 2.3 10.5 1.4 1.2-.3 1.2-3.9-.1-3.8-3.4.2-6.8 0-9.9-1.3-1.5-.6-1.7 3.1-.5 3.7zM344.2 239.3c-8.2-18.2-4.6-38.2 1.9-56.3 4.9-13.5 11.8-27.6 7.2-42.2-.9-3-2.1 1-1.7 2.4 2.7 11.1-1.9 21.7-5.7 31.9-2.8 7.6-5.4 15.3-7 23.2-2.9 14.5-2.5 29.8 4.3 43.1.8 1.6 1.4-1.3 1-2.1z"></path><path d="M352.3 164.7c6.2-5 8.6-13.5 8.8-21.1 0-1.8-1.6-2.9-1.8-.5-.5 7.4-3.4 13.2-7.5 19.2-.4.4-.3 3 .5 2.4zM339.5 190.2c-3.7-10.1-7.6-20.4-12.9-29.8-4-7.1-9.5-15-17.6-17.6-1.7-.5-1.7 4.1-.5 4.8 16.3 9.3 23.1 27.9 29.8 44.5.7 1.5 1.5-1.2 1.2-1.9z"></path><path d="M324.7 166.2c-6.3-5.3-14-.8-19.1 3.9-.8.7-.5 4.4.6 3.6 5.2-3.7 11.9-9.1 18.2-4.6.8.6 1-2.3.3-2.9zM320.4 156.5c-.7-5.5.2-10.6 1.6-15.9.2-.8-.6-4.1-1.3-2.2-2.4 6-2.5 12.6-1.3 18.8.3 1.6 1.1.4 1-.7zM332.5 176.8c4.1-11.6 4-24.3.5-36-.9-3-2.3 1-1.8 2.5 3 10.6 2.7 20.9.1 31.6-.3.7.6 3.6 1.2 1.9zM335.7 218.2c-12.5-10.1-28.8-4-39.9 5-1.1.9-.6 5.1.7 4.1 11.2-7.9 25.8-16.3 38.8-6.8.7.6 1-1.9.4-2.3z"></path><path d="M316.9 218.2c-4.6 3.1-6.4 8.7-5.8 14.1.2 2.2 2.2 1.3 2-.6-.4-4.3 1.4-7.8 4.4-10.7.6-.5.3-3.4-.6-2.8zM316.3 210.3c-1.9-3-2.4-6.4-1.1-9.7.4-.9.5-2.3-.1-3.1-.4-.7-1.1-.9-1.5 0-2 5.2-1.5 11 1.7 15.5.9 1.1 1.4-2 1-2.7zM382.6 137.5c-4.2-15.7-10.8-30.5-19.8-44.1-6.7-10.2-19.1-29.3-33.8-25.5-1.5.4-1.4 4.9.1 4.8 15.2-1.1 25.1 13.8 32.6 24.9 8.6 12.6 15.2 26.7 19.7 41.3.6 1.6 1.4-.5 1.2-1.4z"></path><path d="M349.8 76.5c-3.7-7.3-3.5-15.1 1.5-21.7.6-.8 0-4.4-.9-3.2-5.8 7.6-6.7 18.7-1.2 26.7.6.7.8-1.4.6-1.8zM367.4 97.6c.2-9.3.2-18.7 0-28.1-.1-2.9-2.1-2.8-2.2.1-.1 9.3.2 18.7.6 28.1.1 2.1 1.6 2 1.6-.1zM364.1 100.9c-10.4.8-19.4 7.4-23 17.2-.4 1 .5 4.8 1.4 2.8 3.8-9 12-15.3 21.7-16.4 1.1-.2 1-3.6-.1-3.6z"></path><path d="M361 100c-6.5-.5-12.7-2.2-18.5-5.2-1.2-.6-1.5 3.3-.4 3.9 6 3.1 12.2 4.5 19 4.2 1 .1.9-2.8-.1-2.9zM390.2 128.3c-3.6-20.8-4.3-59.7 22.5-65.8 1.5-.4 1.3-5.1-.1-4.9-13.3 1.8-20.4 14.1-23.5 26.1-3.9 14.8-4.1 30.7-.6 45.6.5 2.4 2 .7 1.7-1z"></path><path d="M389.7 80.6c-2.5-9.2-7.1-17.9-14.1-24.6-1.2-1.2-1.6 2.6-.8 3.4 6.4 6.5 11.3 13.6 14 22.3.5 1.5 1.2-.4.9-1.1zM398.5 73.2c6.8.5 11.9 2.5 16.6 7.6 1.3 1.4 1.7-2.9.9-3.8-4-4.9-11.3-7.9-17.6-6.6-.8.2-.8 2.8.1 2.8zM401.7 62.1c.9-6.1 0-12.4-2.8-17.9-.8-1.6-1.4 1.6-1 2.4 2.2 4.8 3.2 9.6 2.7 14.8-.2 1.2.9 2.4 1.1.7zM430.3 80.7c5-11 4.1-23.9-2.5-34.1-.8-1.3-1.5 2.4-1 3.3 5.3 9 6.4 19 2.5 28.9-.2.7.4 3.3 1 1.9zM432.5 81.8c2.8-4.6 7.5-7.2 12.8-7.3 1.3 0 1.2-4.1-.1-4-5.9.4-10.8 3.8-13.7 8.9-.3.7.4 3.4 1 2.4zM77.2 305.6c7.3 8.4 8.1 19.3 8 30-.1 10.9-.3 21.8.5 32.7 1.4 20.7 5.2 41.9 14.9 60.5 1.5 2.9 2.4-2.8 1.8-4.2-10-21.8-14-44.9-14.9-68.7-.6-17.2 3.3-39.7-9.6-53.5-1-1.1-1.4 2.5-.7 3.2zM45.5 213.9c10.8 20.8 25.6 38.8 38.9 58 13.4 19.4 24.3 40.6 27.7 64.1.5 3.7 2.5.9 2.2-1.5-2.9-22.9-13-43.7-25.8-62.6C74.7 251.5 58 233 46.3 211.2c-.6-1-1.1 2-.8 2.7z"></path><path d="M86.4 248.1c13.7 36.1 3.8 77.1 19.4 112.6 1.1 2.4 2.1-2 1.7-3.1-6.9-19.1-8.7-38.8-10.2-59-1.4-17.9-3.3-35.8-10.1-52.6-.6-1.4-1.1 1.4-.8 2.1zM96.3 237c11.5 22.8 19.1 46.9 24.1 71.9.7 3.6 2.6.9 2.2-1.5-4.1-25.6-13.1-50.5-25.3-73.3-.9-1.8-1.5 1.9-1 2.9zM49.5 122.6c3.1 5.4 7.8 10.1 12.3 14.3.7.7 1.1-1.6 1.1-1.8.5-4.7 1.7-9.1 3.8-13.3.6-1.2.8-3.8-.4-4.8-4.5-3.9-12.1-2.6-14.8 2.8-.5 1 0 6 1.1 4.4 2.9-4.5 9.2-5.6 13.4-2.1-.1-1.6-.2-3.2-.4-4.8-2.6 5.2-4.1 10.7-4.5 16.5.4-.6.7-1.2 1.1-1.8-4.5-3.7-8.1-8.1-12.3-12.1-.6-.6-.6 2.3-.4 2.7z"></path><path d="M60.5 138.2c6.5 29.7 20.1 57.7 38.6 81.8 18 23.4 39.4 44.4 50.1 72.5 1.5 3.9 3.1-1.2 2.4-3.3-9-27.4-30.1-48.4-47.8-70.4-19.7-24.5-33.7-51.9-42.5-82.1-.5-1.9-1 .7-.8 1.5z"></path><path d="M107.7 176.2c25.5 38 10.2 86.5 24.5 127.8 1 3 2.4-.9 1.9-2.5-12.4-41.5.3-90.4-25.9-127.7-.6-.7-.9 1.8-.5 2.4zM112.6 142.1c6.3 25.8 17.4 50.4 33.1 71.9 14.5 19.9 34 38.9 37.4 64.5.5 3.7 2.7.9 2.4-1.5-2.9-24.3-19.5-42.9-34-61.5-17.5-22.4-30.6-47.5-37.8-75.1-.6-2.1-1.4.7-1.1 1.7z"></path><path d="M153.8 112.2c38.4 52.3 2.5 119.4 14 177.2.7 3.5 2.6.9 2.4-1.4-4.3-34.3 3-67.7 3.9-101.9.7-26.7-3.2-54.2-19.8-76-.6-.8-.9 1.5-.5 2.1z"></path><path d="M145.5 95.5c-1.8 2.4-3.6 4.8-5.5 7-.8.9-.6 3.1.3 3.9 3.7 3.1 8.5 5 13.4 5.6 1.1.1 1-2.6.9-3.1-.5-5.6-2.9-11.1-7.2-14.8-.9-.8-1.3 3.3-.6 4 3.1 3.2 5.4 7 5.8 11.5.3-.8.7-1.6 1-2.4-4.8-.6-8.8-2.3-12.9-4.9l.3 3.9c1.6-2.8 3.5-5.4 5.2-8.1.4-.6.1-3.5-.7-2.6zM63 118.7c6.2-1.5 12.2-3.2 18.3-4.9 4.6-1.4 11-2.1 14.9-5.2 2-1.6 2.9-3.9 2.4-6.4-.2-1.2-.6-2.1-1.4-3-.7-.8-2.1-1.4-2.7-2.3-1.2-2 .2-4.5 1.1-6.3.3-.6.5-4-.8-3.8-2.1.4-4.1.2-5.9-1.1-2.3-1.7-1.9-3.7-2.5-6.2-.4-1.7-.7-2.9-2.2-4-1.9-1.4-3.7 0-4.8-3-.3-.8-.1-2-.3-2.8-.5-2.1-1.1-3.2-3.2-3.9-1-.4-2.2-.1-3.2-.7-1.4-.8-2-2.5-3-3.7-1-1.2-2.1-2-3.7-1.7-1.2.3-1.7 1.4-2.8 1.8-2.5 1-3.1-.7-4.5-2.1-1.3-1.4-2.2-2.5-4.1-2.9-.2 0-.4.1-.5.3-2 3.4-5.8 4.1-9 2.1-.8-.5-1.1 1.2-1.2 1.6-.3 2-1 4.1-2.9 4.8-1.3.5-2.6-.4-3.8 0-1 .4-1.4.9-1.9 1.8-.7 1.2-.3 2.6-.8 3.9-1.3 3.4-3.1 1.4-5.4 2.1-4.6 1.4-4.3 9.1-1 11.6-.1-1.5-.2-3-.4-4.5-2.5 2.7-7.4-1.6-10.1 1.6-.9 1.1-1.1 2.8-1.1 4.2 0 1.1 1.1 3.7.8 4.6-.6 1.5-3.8 1.4-5 2.4-.9.8-1.3 1.9-1.6 3.1-.8 4.4 3.4 6.4 3.3 9.9-.1 2.6-2.6 4.3-3.8 6.6-.8 1.7-1.4 3.5-1.5 5.4-.1 3.5 1.3 6.4 4.8 7.3 5.9 1.5 12.9 1.1 18.9.6 6.7-.5 13.1-1.7 19.5-3.8 1.3-.4 1-5.1-.4-4.8-10.9 2-22 3.2-33.1 2.3-2.8-.2-7.5.3-5.4-4 .8-1.7 2.4-3 3.3-4.6 1.4-2.7 1.9-6 .8-8.9-.4-1.1-1.1-2-1.8-2.9-1.7-2-2.2-1 .3-1.8 2.6-.8 3.7-2.3 4.1-5 .3-2.8-2.2-6.5 1.7-6.7 2.9-.2 5.4 1.2 7.6-1.3.8-1 .7-3.7-.4-4.5-3.2-2.2 4.5-1.8 4.2-1.8 1.1-.1 1.6-.2 2.4-.9 1.4-1.4.7-3.4 1.5-5 1.6-3.2 4.9-1.1 7.1-3.6 1.6-1.8 2-4.6 2.3-6.9-.4.5-.8 1.1-1.2 1.6 2.4 1.4 5 1.6 7.5.2 1.2-.7 2.4-2.5 3.9-2.1 1.3.4 2.3 2.8 3.3 3.7 2.2 1.8 3.1 1.1 5.3 0 4.5-2.2 4.4 2.3 7.6 4.2 1.2.7 3.3.2 4.3 1 1.3 1 .9 3.8 1.4 5.2.3 1 .7 1.9 1.5 2.6 1.2 1 3.2.6 4.3 1.5 1.5 1.3 1.1 6.1 2.6 8.1 2 2.7 5.2 3.9 8.5 3.3-.3-1.3-.5-2.5-.8-3.8-1.4 2.9-2.6 6.1-2.2 9.4.2 1.4.7 2.8 1.6 3.9 1.4 1.8 3.6 1.7 1.3 3.7-1.7 1.5-4.7 2.1-6.7 2.7-2.7.9-5.5 1.9-8.2 2.8-5.8 2-11.5 4.2-17.3 6.4-.6.7-.5 2.8.2 2.6z"></path><path d="M139.8 103.5c-3.1 3.1-6.1 6.4-9.3 9.4-1.7 1.6-3.4 3.1-5.6 3.9-1.1.4-11.1 1.1-8.4-3.1.5-.8 1-4.3-.7-4.3-1.2 0-2.3 0-3.5.1.3.5.7 1 1 1.5.1-1.2.3-2.5.4-3.7.2-.5.4-3.2-.6-3-2.3.4-2.7-.6-1.3-3 .5-.6.7-2.8-.3-3.2-3-1.3-1.7-.8-1.2-2.8.3-1.1.6-1.8.4-3-.4-2.5-2.2-4.1-2.6-6.8-.4-3 .4-15.1 5.7-10.9.7.5 1-1.2 1.1-1.4.2-2 .1-2.7.9-4.7 0-1.9 1-2.8 2.8-2.7 1.5.1 2.7.7 3.5 1.9 1 1.2 1.3-1.7 1.2-2.2-1-5.3 2.7-2.5 5.2-2.7 1.4-.1 1.9-1.7 3-2.2 3.9-2 12.3 2.1 14.7 5.2.3.4.7.3.9 0 1.5-2 5 .3 6.7 1 .5 0 1 .1 1.5.1 3.1 1.7 4 3.5 2.5 5.6-.5 1.5-1.7 3.2-2.5 4.6-3.2 5.6-6.3 11.2-9.5 16.8-.8 1.5.1 6.6 1.5 4l8.4-15.6c2-3.8 4.9-7.8 5.1-12.3.1-2.2-.6-5.2-2.6-6.6-1.7-1.1-3.7-.6-5.5-1.3-1.9-.7-2.6-1.6-4.7-1.4-1.2.1-.8.6-1.9.3-1.6-.5-3.2-2.2-4.9-2.9-3.2-1.2-6.9-2.5-10.2-1.3-2.4.9.9.5-2.5 1.3-2.1.5-1.3-.4-2.9-.3-1.4.1-2.1 0-3.1 1.3-1.7 2-1.2 5.2-.7 7.5.4-.7.8-1.5 1.2-2.2-2.1-2.3-5.3-3.2-7.9-.8-2.6 2.4-1.6 5.5-1.9 8.7.4-.5.7-1 1.1-1.4-8.1-6.6-8.4 14.2-7.6 17.7.2.8 2.3 4.5 2.2 4.9.5-1.7-2.4 2.1-1.6 1-.3.4-.3.8-.4 1.2-.9 3.4 1.5 5.3 4.5 6-.2-1-.4-2-.6-2.9-1.3 2.6-3.2 11 2.6 9.1-.3-1-.6-1.9-.8-2.9-.8 2.4-1.3 4.3-1.2 6.8 0 .7.2 2 1.1 2.1 1.2.1 2.3.2 3.5.3-.2-1.4-.4-2.9-.7-4.3-3.1 4.2-1.4 11.1 3.9 12.6 9.4 2.7 16.7-10.1 21.2-16.1.4-.8.1-3.5-.6-2.9zM177.8 55.1c.6 3.5 1.5 6.9 2.5 10.3.7 2.4 1.2 5.8 2.7 7.9 2.9 4 6.3-4 7.4-6.1 1.6-3 5.2-8.8 2.3-12.3-1.2-1.5-3.7-1.8-5.4-2.3-3.5-.9-7.3-1.7-11-1.4-1.1.1-1 3.5.1 3.7 3.7.7 7.4.9 11 1.9.2 0 3.8.8 4.2 1.6.3.7-2 4.4-2.3 5-.7 1.2-2.1 4.7-3.4 5.6-2.6 1.7-3.1-2.6-3.7-4.4-1.2-3.5-2.2-7.1-3.4-10.6-.5-1.3-1.1.4-1 1.1z"></path><path d="M191.2 58.6c5.2.9 10.4 2.2 15.6 2.8 3 .4 6.5.4 9-1.6 1.3-1.1 2-2.4 1.6-4.2-.2-.9-.6-1.5-1.2-2.2-1.1-1.3-1.7-.6-1.1-1.7.8-1.2 3.1-1.9 4.2-3 .8-.9 1.5-1.9 1.8-3 .6-1.9.3-3.7-.4-5.5-1.4-3.9.2-9.4-5.3-10.7l.3 3.9c1.6-1.3 1.9-3.1 1.7-5.1-.4-3.6-4.5-5.5-4.9-8.8-.1-.5-.3-1.7-1-1.4-3.9 1.5-5.3-1.2-6.7-4.3-.4-.9-.6-2-1.4-2.6-2.7-2-5.3 2.4-7.8-2-.4-.8-1 0-1.2.4-1.6 3.5-5.9-.1-7.3-1.6-1-1.1-1.4.9-1.5 1.6-.7 5.6-7.6.4-9.8 3.4-1.6 2.2-1 5.4-3.5 7.2-1.6 1.1-3.7 1-5.4 1.8-3 1.5-2.1 5.3-5.2 6-1.7.4-2.9-.1-4.2 1.5-1.2 1.4-.9 5.4-3.3 5.6-1.7.1-.9 4.2-.4 5 1.1 1.8.6 4.3 1.6 6.2 1.3 2.5 3.9 2.9 6.4 3.7 7.1 2.2 14.2 4.9 21.6 6.3 1.1.2 1.1-4 .1-4.5-6-2.6-12.3-4.2-18.5-6.2-1.3-.4-2.7-.8-4-1.2-3.1-1-3.8-1.7-4.8-4.7-.5-1.6-.7-2.8-1.5-4.2-.1 1.7-.3 3.3-.4 5 1.9-.1 2.7-1.3 3.3-3 .4-1.1.3-3 1.3-3.8 1.2-.9 3.3-.1 4.5-.7 1.4-.6 1.7-1.6 2.1-3 1.3-3.7 2.7-2.8 5.9-4.3 1.9-.8 3.3-2.2 4.2-4.1 1.3-2.7.2-4.4 3.9-4.4 2.3 0 3.8.6 5.8-1.3 1.4-1.4 1.8-3.1 2-5-.5.5-1 1.1-1.5 1.6 2.8 3.1 7.4 5.9 9.7.7-.4.1-.8.3-1.2.4.8 1.5 2.1 2.6 3.9 2.7.8 0 1.6-.5 2.3-.5 4 .3 1.9 1.1 3.2 2.7 2.3 2.9 3.8 5.2 8 3.5-.3-.5-.7-.9-1-1.4.2 1.4.3 2.3 1 3.5.5.9 4.5 4.4 3.2 5.5-.7.6-.9 3.6.3 3.9 4.1.9 2 3.6 2.5 6.3.2.8 1.3 2.1 1.3 2.8.1 3.5-3.9 4.3-5.8 6.3-1.1 1.2-1.5 2.4-1.2 4 .4 2.6 3 2.9 3.8 5.2 0-1 .1-2 .1-2.9-4.7 6.4-18.8 2.4-25.2 1.7-.1-.4-.1 1.6.5 1.7zM184.4 73.2c-5 15.5 1.3 30.8 7.6 45 4.4 9.8 8 19.6 8.6 30.4.5 9.2-.5 18.5-1.6 27.7-2.1 17.8-3.2 34.8.9 52.4 2 8.5 4.6 16.8 6.3 25.3 2.1 10.1 2.1 19.3-.6 29.2-.3 1.2 1 5.6 2.1 3 6.1-14.6 1.9-31.5-2-46.2-2.5-9.6-5.4-19.3-6.2-29.2-.7-9.3.2-18.6 1.2-27.8 1.8-17 4-34.5-.9-51.3-5.5-18.7-20.4-36.5-14.7-56.9.4-.6-.3-2.8-.7-1.6z"></path><path d="M195.1 260.9c-2.6-13.5-1.9-27.6 3.7-40.2 4.7-10.7 12.3-19.8 18.9-29.3 12.5-18.2 18.7-39.5 13.8-61.5-.7-3.1-2.3.5-2 2.1 2.1 13.3 1 26.6-4.4 39-4.7 10.9-12.3 20.1-18.9 29.8-12.4 18.4-17.2 39.1-12.3 60.9.3 1.7 1.4.5 1.2-.8zM185.6 136.4c7.3 28-2.3 56.8.9 85.1.3 2.9 2.6 1.6 2.4-.7-2.1-28.6 6.2-57.9-2.2-85.9-.6-2-1.4.5-1.1 1.5zM239.9 180.3c-6.4 21-22.8 38.6-21.5 61.7.2 2.8 2.3 2.9 2.2-.1-.6-21.8 15.1-39.6 20.7-59.9.3-1.1-.7-3.9-1.4-1.7zM56.2 106.1c.2-7.5.3-15.1.3-22.6 0-2.6-2.1-2.6-2.1.1-.1 7.5.1 15.1.3 22.6 0 1.9 1.4 1.8 1.5-.1zM61.4 106c2.6-4.1 5.2-8.2 7.7-12.4.4-.7.6-1.7.2-2.4-.2-.4-.7-1.4-1.2-.6-2.7 4.3-5.2 8.6-7.8 13-.3.7.4 3.5 1.1 2.4zM68.9 108.6c2.6-1.5 5.2-3 7.8-4.6 1-.6.5-4.1-.6-3.5l-7.8 4.8c-.8.6-.4 3.9.6 3.3zM47.4 102.9C44.2 97.6 41.2 92.2 38 87c-1-1.7-1.7 1.6-1.1 2.5 3.1 5.1 6.5 10 9.7 15.1.7 1.2 1.2-1.1.8-1.7zM40.5 108.6c-3.1.1-6.2.3-9.4.5-1.3.1-1.1 3.7.1 3.6 3.1-.3 6.2-.8 9.3-1.2 1.1-.2 1-2.9 0-2.9zM136.6 89.2c-5.2-4-10.4-7.9-15.6-11.9-.8-.6-1.3 2.7-.3 3.4 5.2 3.8 10.4 7.6 15.6 11.5.7.4 1.1-2.4.3-3zM140.1 84.3c-.7-2.8-1.1-5.7-1.1-8.6 0-.5-.2-2.1-1-2-.8 0-.9 1.6-.9 2.1 0 3.6.5 7.2 1.8 10.5.2.6.6.5 1 .1.5-.5.3-1.5.2-2.1zM143.8 84c.9-1.6 1.8-3.1 2.6-4.8.3-.6.2-1.4 0-2-.1-.3-.6-.9-.9-.4-1 1.6-1.7 3.3-2.5 5-.3.5-.2 1.3 0 1.8.1.3.5.9.8.4zM134.1 97.2c-3.9-.7-7.7-1.8-11.5-2.9-1.5-.4-1.6 3.2-.4 3.7 3.9 1.4 7.9 1.9 12 2 1 .1.9-2.6-.1-2.8zM130.9 102l-3 2.1c-1 .7-2 1.4-2.8 2.3-.5.6-.5 3.5.7 2.9 1-.6 1.9-1.6 2.8-2.4 1-.9 1.9-1.8 2.8-2.8.4-.4.2-2.6-.5-2.1zM189.9 47.1c2.1-5.4 4-10.9 5.7-16.5.2-.8-.7-3.9-1.3-2.1-2 5.6-3.8 11.2-5.4 16.9-.3.6.5 3.1 1 1.7zM196 46c2.2-2 4.4-4.1 6.4-6.4.5-.6.1-3.5-.6-2.9-2.3 2-4.3 4.3-6.3 6.5-.6.6-.2 3.4.5 2.8zM183.5 41c-.3-2.1-.9-4-1.6-6-.2-.5-.6-1.2-1.1-.6-.5.5-.5 1.8-.2 2.5.6 1.8 1.1 3.8 2.2 5.4.5.7.7-1.1.7-1.3zM169.3 41.8c2.5-.1 4.8.6 6.8 1.9.8.5 1.1-2.4.3-2.9-2.2-1.3-4.7-1.6-7.2-1.2-.7.1-.6 2.2.1 2.2zM199.6 52.7c.5.3 1 .5 1.6.8.7.4 1-2 .2-2.4-.5-.3-1-.5-1.6-.8-.7-.4-.9 2-.2 2.4z"></path></svg>